<mxfile host="app.diagrams.net" agent="Mozilla/5.0 (Windows NT 10.0; Win64; x64) AppleWebKit/537.36 (KHTML, like Gecko) Chrome/131.0.0.0 Safari/537.36" version="24.9.0">
  <diagram name="Strona-1" id="5XHEG-r7JcozLYzEbHpV">
    <mxGraphModel dx="1221" dy="759" grid="1" gridSize="10" guides="1" tooltips="1" connect="1" arrows="1" fold="1" page="1" pageScale="1" pageWidth="827" pageHeight="1169" math="0" shadow="0">
      <root>
        <mxCell id="0" />
        <mxCell id="1" parent="0" />
        <mxCell id="aYmNwZs_Y1c9iqJjh8kd-1" value="(0,0)" style="text;html=1;align=center;verticalAlign=middle;whiteSpace=wrap;rounded=0;fillColor=#f5f5f5;strokeColor=#666666;gradientColor=#b3b3b3;" parent="1" vertex="1">
          <mxGeometry x="370" y="90" width="60" height="30" as="geometry" />
        </mxCell>
        <mxCell id="aYmNwZs_Y1c9iqJjh8kd-2" value="(4,0)" style="text;html=1;align=center;verticalAlign=middle;resizable=0;points=[];autosize=1;strokeColor=#666666;fillColor=#f5f5f5;gradientColor=#b3b3b3;" parent="1" vertex="1">
          <mxGeometry x="245" y="168" width="50" height="30" as="geometry" />
        </mxCell>
        <mxCell id="aYmNwZs_Y1c9iqJjh8kd-3" value="(0,3)" style="text;html=1;align=center;verticalAlign=middle;resizable=0;points=[];autosize=1;strokeColor=#666666;fillColor=#f5f5f5;gradientColor=#b3b3b3;" parent="1" vertex="1">
          <mxGeometry x="500" y="168" width="50" height="30" as="geometry" />
        </mxCell>
        <mxCell id="aYmNwZs_Y1c9iqJjh8kd-4" value="" style="endArrow=none;startArrow=openThin;html=1;rounded=0;entryX=0;entryY=0.75;entryDx=0;entryDy=0;startFill=0;endFill=0;exitX=0.957;exitY=0.067;exitDx=0;exitDy=0;exitPerimeter=0;" parent="1" source="aYmNwZs_Y1c9iqJjh8kd-2" target="aYmNwZs_Y1c9iqJjh8kd-1" edge="1">
          <mxGeometry width="50" height="50" relative="1" as="geometry">
            <mxPoint x="300" y="170" as="sourcePoint" />
            <mxPoint x="365" y="120" as="targetPoint" />
          </mxGeometry>
        </mxCell>
        <mxCell id="aYmNwZs_Y1c9iqJjh8kd-19" value="1&lt;div&gt;&lt;br&gt;&lt;/div&gt;" style="edgeLabel;html=1;align=center;verticalAlign=middle;resizable=0;points=[];" parent="aYmNwZs_Y1c9iqJjh8kd-4" vertex="1" connectable="0">
          <mxGeometry x="0.0088" relative="1" as="geometry">
            <mxPoint x="-3" y="9" as="offset" />
          </mxGeometry>
        </mxCell>
        <mxCell id="aYmNwZs_Y1c9iqJjh8kd-7" value="" style="endArrow=none;startArrow=openThin;html=1;rounded=0;entryX=1;entryY=0.75;entryDx=0;entryDy=0;targetPerimeterSpacing=6;startFill=0;endFill=0;" parent="1" target="aYmNwZs_Y1c9iqJjh8kd-1" edge="1">
          <mxGeometry width="50" height="50" relative="1" as="geometry">
            <mxPoint x="500" y="168" as="sourcePoint" />
            <mxPoint x="425" y="111" as="targetPoint" />
          </mxGeometry>
        </mxCell>
        <mxCell id="aYmNwZs_Y1c9iqJjh8kd-21" value="2" style="edgeLabel;html=1;align=center;verticalAlign=middle;resizable=0;points=[];" parent="aYmNwZs_Y1c9iqJjh8kd-7" vertex="1" connectable="0">
          <mxGeometry x="-0.0738" y="1" relative="1" as="geometry">
            <mxPoint as="offset" />
          </mxGeometry>
        </mxCell>
        <mxCell id="aYmNwZs_Y1c9iqJjh8kd-8" value="(4,3)" style="text;html=1;align=center;verticalAlign=middle;whiteSpace=wrap;rounded=0;fillColor=#f5f5f5;strokeColor=#666666;gradientColor=#b3b3b3;" parent="1" vertex="1">
          <mxGeometry x="370" y="350" width="60" height="30" as="geometry" />
        </mxCell>
        <mxCell id="aYmNwZs_Y1c9iqJjh8kd-9" value="(1,3)" style="text;html=1;align=center;verticalAlign=middle;resizable=0;points=[];autosize=1;strokeColor=#666666;fillColor=#f5f5f5;gradientColor=#b3b3b3;" parent="1" vertex="1">
          <mxGeometry x="150" y="250" width="50" height="30" as="geometry" />
        </mxCell>
        <mxCell id="aYmNwZs_Y1c9iqJjh8kd-10" value="(3,0)" style="text;html=1;align=center;verticalAlign=middle;resizable=0;points=[];autosize=1;strokeColor=#666666;fillColor=#f5f5f5;gradientColor=#b3b3b3;" parent="1" vertex="1">
          <mxGeometry x="595" y="250" width="50" height="30" as="geometry" />
        </mxCell>
        <mxCell id="aYmNwZs_Y1c9iqJjh8kd-11" value="(1,0)" style="text;html=1;align=center;verticalAlign=middle;resizable=0;points=[];autosize=1;strokeColor=#666666;fillColor=#f5f5f5;gradientColor=#b3b3b3;" parent="1" vertex="1">
          <mxGeometry x="150" y="358" width="50" height="30" as="geometry" />
        </mxCell>
        <mxCell id="aYmNwZs_Y1c9iqJjh8kd-12" value="(0,1)" style="text;html=1;align=center;verticalAlign=middle;resizable=0;points=[];autosize=1;strokeColor=#666666;fillColor=#f5f5f5;gradientColor=#b3b3b3;" parent="1" vertex="1">
          <mxGeometry x="150" y="470" width="50" height="30" as="geometry" />
        </mxCell>
        <mxCell id="aYmNwZs_Y1c9iqJjh8kd-13" value="(4,1)" style="text;html=1;align=center;verticalAlign=middle;resizable=0;points=[];autosize=1;strokeColor=#666666;fillColor=#f5f5f5;gradientColor=#b3b3b3;" parent="1" vertex="1">
          <mxGeometry x="150" y="570" width="50" height="30" as="geometry" />
        </mxCell>
        <mxCell id="aYmNwZs_Y1c9iqJjh8kd-14" value="(3,3)" style="text;html=1;align=center;verticalAlign=middle;resizable=0;points=[];autosize=1;strokeColor=#666666;fillColor=#f5f5f5;gradientColor=#b3b3b3;" parent="1" vertex="1">
          <mxGeometry x="595" y="358" width="50" height="30" as="geometry" />
        </mxCell>
        <mxCell id="aYmNwZs_Y1c9iqJjh8kd-15" value="(4,2)" style="text;html=1;align=center;verticalAlign=middle;resizable=0;points=[];autosize=1;strokeColor=#666666;fillColor=#f5f5f5;gradientColor=#b3b3b3;" parent="1" vertex="1">
          <mxGeometry x="595" y="470" width="50" height="30" as="geometry" />
        </mxCell>
        <mxCell id="aYmNwZs_Y1c9iqJjh8kd-16" value="(0,2)" style="text;html=1;align=center;verticalAlign=middle;resizable=0;points=[];autosize=1;strokeColor=#666666;fillColor=#f5f5f5;gradientColor=#b3b3b3;" parent="1" vertex="1">
          <mxGeometry x="595" y="570" width="50" height="30" as="geometry" />
        </mxCell>
        <mxCell id="aYmNwZs_Y1c9iqJjh8kd-27" value="" style="endArrow=openThin;startArrow=none;html=1;rounded=0;entryX=0.019;entryY=0.94;entryDx=0;entryDy=0;startFill=0;endFill=0;entryPerimeter=0;" parent="1" target="aYmNwZs_Y1c9iqJjh8kd-2" edge="1">
          <mxGeometry width="50" height="50" relative="1" as="geometry">
            <mxPoint x="180" y="250" as="sourcePoint" />
            <mxPoint x="255" y="193" as="targetPoint" />
          </mxGeometry>
        </mxCell>
        <mxCell id="Pfp1v4sWHXsM7J0-VuYN-1" value="5, 8" style="edgeLabel;html=1;align=center;verticalAlign=middle;resizable=0;points=[];" parent="aYmNwZs_Y1c9iqJjh8kd-27" connectable="0" vertex="1">
          <mxGeometry x="-0.1271" y="1" relative="1" as="geometry">
            <mxPoint y="-4" as="offset" />
          </mxGeometry>
        </mxCell>
        <mxCell id="aYmNwZs_Y1c9iqJjh8kd-23" value="" style="endArrow=none;startArrow=openThin;html=1;rounded=0;startFill=0;endFill=0;exitX=0.841;exitY=0.02;exitDx=0;exitDy=0;exitPerimeter=0;entryX=0.136;entryY=1.047;entryDx=0;entryDy=0;entryPerimeter=0;" parent="1" source="aYmNwZs_Y1c9iqJjh8kd-9" target="aYmNwZs_Y1c9iqJjh8kd-2" edge="1">
          <mxGeometry width="50" height="50" relative="1" as="geometry">
            <mxPoint x="200" y="250" as="sourcePoint" />
            <mxPoint x="250" y="210" as="targetPoint" />
          </mxGeometry>
        </mxCell>
        <mxCell id="aYmNwZs_Y1c9iqJjh8kd-24" value="6" style="edgeLabel;html=1;align=center;verticalAlign=middle;resizable=0;points=[];" parent="aYmNwZs_Y1c9iqJjh8kd-23" vertex="1" connectable="0">
          <mxGeometry x="0.0088" relative="1" as="geometry">
            <mxPoint x="2" y="-1" as="offset" />
          </mxGeometry>
        </mxCell>
        <mxCell id="aYmNwZs_Y1c9iqJjh8kd-29" value="" style="endArrow=none;startArrow=openThin;html=1;rounded=0;entryX=1.031;entryY=0.851;entryDx=0;entryDy=0;startFill=0;endFill=0;entryPerimeter=0;" parent="1" target="aYmNwZs_Y1c9iqJjh8kd-3" edge="1">
          <mxGeometry width="50" height="50" relative="1" as="geometry">
            <mxPoint x="610" y="250" as="sourcePoint" />
            <mxPoint x="540.0000000000005" y="193" as="targetPoint" />
          </mxGeometry>
        </mxCell>
        <mxCell id="aYmNwZs_Y1c9iqJjh8kd-30" value="&lt;div&gt;8&lt;/div&gt;" style="edgeLabel;html=1;align=center;verticalAlign=middle;resizable=0;points=[];" parent="aYmNwZs_Y1c9iqJjh8kd-29" vertex="1" connectable="0">
          <mxGeometry x="0.0088" relative="1" as="geometry">
            <mxPoint x="-3" y="-1" as="offset" />
          </mxGeometry>
        </mxCell>
        <mxCell id="aYmNwZs_Y1c9iqJjh8kd-25" value="" style="endArrow=openThin;startArrow=none;html=1;rounded=0;startFill=0;endFill=0;" parent="1" edge="1">
          <mxGeometry width="50" height="50" relative="1" as="geometry">
            <mxPoint x="594" y="250" as="sourcePoint" />
            <mxPoint x="540" y="200" as="targetPoint" />
          </mxGeometry>
        </mxCell>
        <mxCell id="aYmNwZs_Y1c9iqJjh8kd-26" value="&lt;div&gt;6&lt;/div&gt;" style="edgeLabel;html=1;align=center;verticalAlign=middle;resizable=0;points=[];" parent="aYmNwZs_Y1c9iqJjh8kd-25" vertex="1" connectable="0">
          <mxGeometry x="0.0088" relative="1" as="geometry">
            <mxPoint x="-3" y="-1" as="offset" />
          </mxGeometry>
        </mxCell>
        <mxCell id="aYmNwZs_Y1c9iqJjh8kd-31" value="7" style="edgeLabel;html=1;align=center;verticalAlign=middle;resizable=0;points=[];" parent="aYmNwZs_Y1c9iqJjh8kd-25" vertex="1" connectable="0">
          <mxGeometry x="-0.2492" y="1" relative="1" as="geometry">
            <mxPoint as="offset" />
          </mxGeometry>
        </mxCell>
        <mxCell id="aYmNwZs_Y1c9iqJjh8kd-33" value="" style="endArrow=none;startArrow=openThin;html=1;rounded=0;entryX=0.405;entryY=1.106;entryDx=0;entryDy=0;startFill=0;endFill=0;entryPerimeter=0;" parent="1" target="aYmNwZs_Y1c9iqJjh8kd-9" edge="1">
          <mxGeometry width="50" height="50" relative="1" as="geometry">
            <mxPoint x="170" y="358" as="sourcePoint" />
            <mxPoint x="245" y="301" as="targetPoint" />
          </mxGeometry>
        </mxCell>
        <mxCell id="aYmNwZs_Y1c9iqJjh8kd-41" value="4" style="edgeLabel;html=1;align=center;verticalAlign=middle;resizable=0;points=[];" parent="aYmNwZs_Y1c9iqJjh8kd-33" vertex="1" connectable="0">
          <mxGeometry x="0.0679" relative="1" as="geometry">
            <mxPoint as="offset" />
          </mxGeometry>
        </mxCell>
        <mxCell id="aYmNwZs_Y1c9iqJjh8kd-34" value="" style="endArrow=openThin;startArrow=none;html=1;rounded=0;entryX=0.405;entryY=1.106;entryDx=0;entryDy=0;startFill=0;endFill=0;entryPerimeter=0;" parent="1" edge="1">
          <mxGeometry width="50" height="50" relative="1" as="geometry">
            <mxPoint x="180" y="358" as="sourcePoint" />
            <mxPoint x="180" y="283" as="targetPoint" />
          </mxGeometry>
        </mxCell>
        <mxCell id="aYmNwZs_Y1c9iqJjh8kd-42" value="2" style="edgeLabel;html=1;align=center;verticalAlign=middle;resizable=0;points=[];" parent="aYmNwZs_Y1c9iqJjh8kd-34" vertex="1" connectable="0">
          <mxGeometry x="0.1063" y="1" relative="1" as="geometry">
            <mxPoint as="offset" />
          </mxGeometry>
        </mxCell>
        <mxCell id="aYmNwZs_Y1c9iqJjh8kd-35" value="" style="endArrow=none;startArrow=openThin;html=1;rounded=0;entryX=0.405;entryY=1.106;entryDx=0;entryDy=0;startFill=0;endFill=0;entryPerimeter=0;" parent="1" edge="1">
          <mxGeometry width="50" height="50" relative="1" as="geometry">
            <mxPoint x="169.62" y="463" as="sourcePoint" />
            <mxPoint x="169.62" y="388" as="targetPoint" />
          </mxGeometry>
        </mxCell>
        <mxCell id="aYmNwZs_Y1c9iqJjh8kd-43" value="7" style="edgeLabel;html=1;align=center;verticalAlign=middle;resizable=0;points=[];" parent="aYmNwZs_Y1c9iqJjh8kd-35" vertex="1" connectable="0">
          <mxGeometry x="0.1166" relative="1" as="geometry">
            <mxPoint as="offset" />
          </mxGeometry>
        </mxCell>
        <mxCell id="aYmNwZs_Y1c9iqJjh8kd-36" value="" style="endArrow=openThin;startArrow=none;html=1;rounded=0;entryX=0.405;entryY=1.106;entryDx=0;entryDy=0;startFill=0;endFill=0;entryPerimeter=0;" parent="1" edge="1">
          <mxGeometry width="50" height="50" relative="1" as="geometry">
            <mxPoint x="179.62" y="463" as="sourcePoint" />
            <mxPoint x="179.62" y="388" as="targetPoint" />
          </mxGeometry>
        </mxCell>
        <mxCell id="aYmNwZs_Y1c9iqJjh8kd-44" value="8" style="edgeLabel;html=1;align=center;verticalAlign=middle;resizable=0;points=[];" parent="aYmNwZs_Y1c9iqJjh8kd-36" vertex="1" connectable="0">
          <mxGeometry x="0.1166" y="-1" relative="1" as="geometry">
            <mxPoint as="offset" />
          </mxGeometry>
        </mxCell>
        <mxCell id="aYmNwZs_Y1c9iqJjh8kd-37" value="" style="endArrow=openThin;startArrow=none;html=1;rounded=0;entryX=0.405;entryY=1.106;entryDx=0;entryDy=0;startFill=0;endFill=0;entryPerimeter=0;" parent="1" edge="1">
          <mxGeometry width="50" height="50" relative="1" as="geometry">
            <mxPoint x="614.62" y="358" as="sourcePoint" />
            <mxPoint x="614.62" y="283" as="targetPoint" />
          </mxGeometry>
        </mxCell>
        <mxCell id="aYmNwZs_Y1c9iqJjh8kd-45" value="4" style="edgeLabel;html=1;align=center;verticalAlign=middle;resizable=0;points=[];" parent="aYmNwZs_Y1c9iqJjh8kd-37" vertex="1" connectable="0">
          <mxGeometry x="-0.0168" relative="1" as="geometry">
            <mxPoint as="offset" />
          </mxGeometry>
        </mxCell>
        <mxCell id="aYmNwZs_Y1c9iqJjh8kd-38" value="" style="endArrow=none;startArrow=openThin;html=1;rounded=0;entryX=0.405;entryY=1.106;entryDx=0;entryDy=0;startFill=0;endFill=0;entryPerimeter=0;" parent="1" edge="1">
          <mxGeometry width="50" height="50" relative="1" as="geometry">
            <mxPoint x="624.62" y="358" as="sourcePoint" />
            <mxPoint x="624.62" y="283" as="targetPoint" />
          </mxGeometry>
        </mxCell>
        <mxCell id="aYmNwZs_Y1c9iqJjh8kd-46" value="2" style="edgeLabel;html=1;align=center;verticalAlign=middle;resizable=0;points=[];" parent="aYmNwZs_Y1c9iqJjh8kd-38" vertex="1" connectable="0">
          <mxGeometry x="0.0243" relative="1" as="geometry">
            <mxPoint as="offset" />
          </mxGeometry>
        </mxCell>
        <mxCell id="aYmNwZs_Y1c9iqJjh8kd-39" value="" style="endArrow=openThin;startArrow=none;html=1;rounded=0;entryX=0.405;entryY=1.106;entryDx=0;entryDy=0;startFill=0;endFill=0;entryPerimeter=0;" parent="1" edge="1">
          <mxGeometry width="50" height="50" relative="1" as="geometry">
            <mxPoint x="615" y="463" as="sourcePoint" />
            <mxPoint x="614.62" y="388" as="targetPoint" />
          </mxGeometry>
        </mxCell>
        <mxCell id="aYmNwZs_Y1c9iqJjh8kd-47" value="6" style="edgeLabel;html=1;align=center;verticalAlign=middle;resizable=0;points=[];" parent="aYmNwZs_Y1c9iqJjh8kd-39" vertex="1" connectable="0">
          <mxGeometry x="0.1986" y="1" relative="1" as="geometry">
            <mxPoint as="offset" />
          </mxGeometry>
        </mxCell>
        <mxCell id="aYmNwZs_Y1c9iqJjh8kd-40" value="" style="endArrow=none;startArrow=openThin;html=1;rounded=0;entryX=0.405;entryY=1.106;entryDx=0;entryDy=0;startFill=0;endFill=0;entryPerimeter=0;" parent="1" edge="1">
          <mxGeometry width="50" height="50" relative="1" as="geometry">
            <mxPoint x="624.62" y="463" as="sourcePoint" />
            <mxPoint x="624.62" y="388" as="targetPoint" />
          </mxGeometry>
        </mxCell>
        <mxCell id="aYmNwZs_Y1c9iqJjh8kd-49" value="5" style="edgeLabel;html=1;align=center;verticalAlign=middle;resizable=0;points=[];" parent="aYmNwZs_Y1c9iqJjh8kd-40" connectable="0" vertex="1">
          <mxGeometry x="0.1781" y="1" relative="1" as="geometry">
            <mxPoint as="offset" />
          </mxGeometry>
        </mxCell>
        <mxCell id="aYmNwZs_Y1c9iqJjh8kd-50" value="" style="endArrow=none;startArrow=openThin;html=1;rounded=0;entryX=0.405;entryY=1.106;entryDx=0;entryDy=0;startFill=0;endFill=0;entryPerimeter=0;" parent="1" edge="1">
          <mxGeometry width="50" height="50" relative="1" as="geometry">
            <mxPoint x="170" y="570" as="sourcePoint" />
            <mxPoint x="170" y="500" as="targetPoint" />
          </mxGeometry>
        </mxCell>
        <mxCell id="Pfp1v4sWHXsM7J0-VuYN-6" value="3" style="edgeLabel;html=1;align=center;verticalAlign=middle;resizable=0;points=[];" parent="aYmNwZs_Y1c9iqJjh8kd-50" connectable="0" vertex="1">
          <mxGeometry x="-0.0222" y="2" relative="1" as="geometry">
            <mxPoint as="offset" />
          </mxGeometry>
        </mxCell>
        <mxCell id="aYmNwZs_Y1c9iqJjh8kd-53" value="" style="endArrow=openThin;startArrow=none;html=1;rounded=0;startFill=0;endFill=0;" parent="1" edge="1">
          <mxGeometry width="50" height="50" relative="1" as="geometry">
            <mxPoint x="280" y="165" as="sourcePoint" />
            <mxPoint x="370" y="100" as="targetPoint" />
          </mxGeometry>
        </mxCell>
        <mxCell id="aYmNwZs_Y1c9iqJjh8kd-54" value="4" style="edgeLabel;html=1;align=center;verticalAlign=middle;resizable=0;points=[];" parent="aYmNwZs_Y1c9iqJjh8kd-53" vertex="1" connectable="0">
          <mxGeometry x="0.0573" relative="1" as="geometry">
            <mxPoint as="offset" />
          </mxGeometry>
        </mxCell>
        <mxCell id="aYmNwZs_Y1c9iqJjh8kd-57" value="3" style="edgeLabel;html=1;align=center;verticalAlign=middle;resizable=0;points=[];" parent="aYmNwZs_Y1c9iqJjh8kd-53" vertex="1" connectable="0">
          <mxGeometry x="0.0858" y="3" relative="1" as="geometry">
            <mxPoint as="offset" />
          </mxGeometry>
        </mxCell>
        <mxCell id="aYmNwZs_Y1c9iqJjh8kd-55" value="" style="endArrow=openThin;startArrow=none;html=1;rounded=0;startFill=0;endFill=0;exitX=0.328;exitY=-0.058;exitDx=0;exitDy=0;exitPerimeter=0;" parent="1" source="aYmNwZs_Y1c9iqJjh8kd-3" edge="1">
          <mxGeometry width="50" height="50" relative="1" as="geometry">
            <mxPoint x="530" y="178" as="sourcePoint" />
            <mxPoint x="430" y="100" as="targetPoint" />
          </mxGeometry>
        </mxCell>
        <mxCell id="aYmNwZs_Y1c9iqJjh8kd-56" value="4" style="edgeLabel;html=1;align=center;verticalAlign=middle;resizable=0;points=[];" parent="aYmNwZs_Y1c9iqJjh8kd-55" vertex="1" connectable="0">
          <mxGeometry x="0.0573" relative="1" as="geometry">
            <mxPoint as="offset" />
          </mxGeometry>
        </mxCell>
        <mxCell id="aYmNwZs_Y1c9iqJjh8kd-62" value="" style="endArrow=none;startArrow=openThin;html=1;rounded=0;entryX=0;entryY=0.75;entryDx=0;entryDy=0;startFill=0;endFill=0;exitX=0.25;exitY=1;exitDx=0;exitDy=0;" parent="1" source="aYmNwZs_Y1c9iqJjh8kd-8" edge="1">
          <mxGeometry width="50" height="50" relative="1" as="geometry">
            <mxPoint x="390" y="390" as="sourcePoint" />
            <mxPoint x="310" y="638" as="targetPoint" />
          </mxGeometry>
        </mxCell>
        <mxCell id="2L5tRokcRGzF5KFAs5Hx-34" value="1" style="edgeLabel;html=1;align=center;verticalAlign=middle;resizable=0;points=[];" parent="aYmNwZs_Y1c9iqJjh8kd-62" connectable="0" vertex="1">
          <mxGeometry x="0.7547" y="-1" relative="1" as="geometry">
            <mxPoint as="offset" />
          </mxGeometry>
        </mxCell>
        <mxCell id="aYmNwZs_Y1c9iqJjh8kd-63" value="" style="endArrow=none;startArrow=openThin;html=1;rounded=0;entryX=0.75;entryY=0;entryDx=0;entryDy=0;startFill=0;endFill=0;" parent="1" target="aYmNwZs_Y1c9iqJjh8kd-8" edge="1">
          <mxGeometry width="50" height="50" relative="1" as="geometry">
            <mxPoint x="510" y="200" as="sourcePoint" />
            <mxPoint x="430" y="250" as="targetPoint" />
          </mxGeometry>
        </mxCell>
        <mxCell id="aYmNwZs_Y1c9iqJjh8kd-64" value="6" style="edgeLabel;html=1;align=center;verticalAlign=middle;resizable=0;points=[];" parent="aYmNwZs_Y1c9iqJjh8kd-63" vertex="1" connectable="0">
          <mxGeometry x="0.0088" relative="1" as="geometry">
            <mxPoint x="-42" y="64" as="offset" />
          </mxGeometry>
        </mxCell>
        <mxCell id="aYmNwZs_Y1c9iqJjh8kd-65" value="" style="endArrow=openThin;startArrow=openThin;html=1;rounded=0;entryX=0.5;entryY=0;entryDx=0;entryDy=0;startFill=0;endFill=0;exitX=0.947;exitY=1.064;exitDx=0;exitDy=0;exitPerimeter=0;" parent="1" source="aYmNwZs_Y1c9iqJjh8kd-2" target="aYmNwZs_Y1c9iqJjh8kd-8" edge="1">
          <mxGeometry width="50" height="50" relative="1" as="geometry">
            <mxPoint x="300" y="200" as="sourcePoint" />
            <mxPoint x="375" y="240" as="targetPoint" />
          </mxGeometry>
        </mxCell>
        <mxCell id="aYmNwZs_Y1c9iqJjh8kd-66" value="" style="endArrow=none;startArrow=openThin;html=1;rounded=0;entryX=0.119;entryY=-0.042;entryDx=0;entryDy=0;startFill=0;endFill=0;entryPerimeter=0;exitX=0.712;exitY=1.047;exitDx=0;exitDy=0;exitPerimeter=0;" parent="1" source="aYmNwZs_Y1c9iqJjh8kd-2" target="aYmNwZs_Y1c9iqJjh8kd-8" edge="1">
          <mxGeometry width="50" height="50" relative="1" as="geometry">
            <mxPoint x="290" y="200" as="sourcePoint" />
            <mxPoint x="370" y="250" as="targetPoint" />
          </mxGeometry>
        </mxCell>
        <mxCell id="aYmNwZs_Y1c9iqJjh8kd-67" value="6" style="edgeLabel;html=1;align=center;verticalAlign=middle;resizable=0;points=[];" parent="aYmNwZs_Y1c9iqJjh8kd-66" vertex="1" connectable="0">
          <mxGeometry x="0.0088" relative="1" as="geometry">
            <mxPoint x="36" y="65" as="offset" />
          </mxGeometry>
        </mxCell>
        <mxCell id="aYmNwZs_Y1c9iqJjh8kd-71" value="" style="endArrow=openThin;startArrow=none;html=1;rounded=0;exitX=0.571;exitY=-0.039;exitDx=0;exitDy=0;exitPerimeter=0;startFill=0;endFill=0;entryX=1;entryY=0;entryDx=0;entryDy=0;" parent="1" source="aYmNwZs_Y1c9iqJjh8kd-10" target="aYmNwZs_Y1c9iqJjh8kd-1" edge="1">
          <mxGeometry width="50" height="50" relative="1" as="geometry">
            <mxPoint x="635.9999999999995" y="257" as="sourcePoint" />
            <mxPoint x="450" y="100" as="targetPoint" />
            <Array as="points">
              <mxPoint x="610" y="160" />
              <mxPoint x="560" y="120" />
            </Array>
          </mxGeometry>
        </mxCell>
        <mxCell id="2L5tRokcRGzF5KFAs5Hx-59" value="3" style="edgeLabel;html=1;align=center;verticalAlign=middle;resizable=0;points=[];" parent="aYmNwZs_Y1c9iqJjh8kd-71" connectable="0" vertex="1">
          <mxGeometry x="-0.0476" y="1" relative="1" as="geometry">
            <mxPoint x="47" y="99" as="offset" />
          </mxGeometry>
        </mxCell>
        <mxCell id="aYmNwZs_Y1c9iqJjh8kd-72" value="" style="endArrow=none;startArrow=openThin;html=1;rounded=0;endFill=0;startFill=0;entryX=0.016;entryY=0.491;entryDx=0;entryDy=0;entryPerimeter=0;exitX=1;exitY=0.5;exitDx=0;exitDy=0;" parent="1" source="aYmNwZs_Y1c9iqJjh8kd-8" target="aYmNwZs_Y1c9iqJjh8kd-14" edge="1">
          <mxGeometry width="50" height="50" relative="1" as="geometry">
            <mxPoint x="440" y="370" as="sourcePoint" />
            <mxPoint x="590" y="372" as="targetPoint" />
          </mxGeometry>
        </mxCell>
        <mxCell id="2L5tRokcRGzF5KFAs5Hx-57" value="1" style="edgeLabel;html=1;align=center;verticalAlign=middle;resizable=0;points=[];" parent="aYmNwZs_Y1c9iqJjh8kd-72" connectable="0" vertex="1">
          <mxGeometry x="0.7361" y="1" relative="1" as="geometry">
            <mxPoint as="offset" />
          </mxGeometry>
        </mxCell>
        <mxCell id="aYmNwZs_Y1c9iqJjh8kd-73" value="" style="endArrow=none;startArrow=openThin;html=1;rounded=0;endFill=0;startFill=0;entryX=0.069;entryY=-0.007;entryDx=0;entryDy=0;entryPerimeter=0;" parent="1" target="aYmNwZs_Y1c9iqJjh8kd-14" edge="1">
          <mxGeometry width="50" height="50" relative="1" as="geometry">
            <mxPoint x="530" y="200" as="sourcePoint" />
            <mxPoint x="600" y="350" as="targetPoint" />
          </mxGeometry>
        </mxCell>
        <mxCell id="2L5tRokcRGzF5KFAs5Hx-58" value="3" style="edgeLabel;html=1;align=center;verticalAlign=middle;resizable=0;points=[];" parent="aYmNwZs_Y1c9iqJjh8kd-73" connectable="0" vertex="1">
          <mxGeometry x="0.744" y="3" relative="1" as="geometry">
            <mxPoint as="offset" />
          </mxGeometry>
        </mxCell>
        <mxCell id="aYmNwZs_Y1c9iqJjh8kd-75" value="" style="endArrow=none;startArrow=openThin;html=1;rounded=0;endFill=0;startFill=0;" parent="1" edge="1">
          <mxGeometry width="50" height="50" relative="1" as="geometry">
            <mxPoint x="415" y="380" as="sourcePoint" />
            <mxPoint x="596" y="477" as="targetPoint" />
          </mxGeometry>
        </mxCell>
        <mxCell id="2L5tRokcRGzF5KFAs5Hx-51" value="2" style="edgeLabel;html=1;align=center;verticalAlign=middle;resizable=0;points=[];" parent="aYmNwZs_Y1c9iqJjh8kd-75" connectable="0" vertex="1">
          <mxGeometry x="0.8352" relative="1" as="geometry">
            <mxPoint as="offset" />
          </mxGeometry>
        </mxCell>
        <mxCell id="Pfp1v4sWHXsM7J0-VuYN-2" value="" style="endArrow=openThin;startArrow=none;html=1;rounded=0;entryX=0.405;entryY=1.106;entryDx=0;entryDy=0;startFill=0;endFill=0;entryPerimeter=0;" parent="1" edge="1">
          <mxGeometry width="50" height="50" relative="1" as="geometry">
            <mxPoint x="180" y="570" as="sourcePoint" />
            <mxPoint x="180" y="500" as="targetPoint" />
          </mxGeometry>
        </mxCell>
        <mxCell id="Pfp1v4sWHXsM7J0-VuYN-7" value="1" style="edgeLabel;html=1;align=center;verticalAlign=middle;resizable=0;points=[];" parent="Pfp1v4sWHXsM7J0-VuYN-2" connectable="0" vertex="1">
          <mxGeometry x="0.001" y="1" relative="1" as="geometry">
            <mxPoint as="offset" />
          </mxGeometry>
        </mxCell>
        <mxCell id="Pfp1v4sWHXsM7J0-VuYN-12" value="" style="endArrow=openThin;startArrow=none;html=1;rounded=0;entryX=0.405;entryY=1.106;entryDx=0;entryDy=0;startFill=0;endFill=0;entryPerimeter=0;" parent="1" edge="1">
          <mxGeometry width="50" height="50" relative="1" as="geometry">
            <mxPoint x="615" y="570" as="sourcePoint" />
            <mxPoint x="614.57" y="500" as="targetPoint" />
          </mxGeometry>
        </mxCell>
        <mxCell id="Pfp1v4sWHXsM7J0-VuYN-16" value="1" style="edgeLabel;html=1;align=center;verticalAlign=middle;resizable=0;points=[];" parent="Pfp1v4sWHXsM7J0-VuYN-12" connectable="0" vertex="1">
          <mxGeometry x="0.0936" y="-1" relative="1" as="geometry">
            <mxPoint as="offset" />
          </mxGeometry>
        </mxCell>
        <mxCell id="Pfp1v4sWHXsM7J0-VuYN-14" value="" style="endArrow=none;startArrow=openThin;html=1;rounded=0;entryX=0.405;entryY=1.106;entryDx=0;entryDy=0;startFill=0;endFill=0;entryPerimeter=0;" parent="1" edge="1">
          <mxGeometry width="50" height="50" relative="1" as="geometry">
            <mxPoint x="625" y="570" as="sourcePoint" />
            <mxPoint x="624.57" y="500" as="targetPoint" />
          </mxGeometry>
        </mxCell>
        <mxCell id="Pfp1v4sWHXsM7J0-VuYN-17" value="3" style="edgeLabel;html=1;align=center;verticalAlign=middle;resizable=0;points=[];" parent="Pfp1v4sWHXsM7J0-VuYN-14" connectable="0" vertex="1">
          <mxGeometry x="0.0937" relative="1" as="geometry">
            <mxPoint as="offset" />
          </mxGeometry>
        </mxCell>
        <mxCell id="Pfp1v4sWHXsM7J0-VuYN-18" value="(2,3)" style="text;html=1;align=center;verticalAlign=middle;resizable=0;points=[];autosize=1;fillColor=#f5f5f5;strokeColor=#666666;gradientColor=#b3b3b3;" parent="1" vertex="1">
          <mxGeometry x="290" y="638" width="50" height="30" as="geometry" />
        </mxCell>
        <mxCell id="Pfp1v4sWHXsM7J0-VuYN-19" value="(2,0)" style="text;html=1;align=center;verticalAlign=middle;resizable=0;points=[];autosize=1;strokeColor=#666666;fillColor=#f5f5f5;gradientColor=#b3b3b3;" parent="1" vertex="1">
          <mxGeometry x="460" y="638" width="50" height="30" as="geometry" />
        </mxCell>
        <mxCell id="Pfp1v4sWHXsM7J0-VuYN-23" value="" style="endArrow=none;startArrow=openThin;html=1;rounded=0;entryX=1.06;entryY=0.491;entryDx=0;entryDy=0;startFill=0;endFill=0;entryPerimeter=0;" parent="1" target="Pfp1v4sWHXsM7J0-VuYN-18" edge="1">
          <mxGeometry width="50" height="50" relative="1" as="geometry">
            <mxPoint x="460" y="652.5699999999999" as="sourcePoint" />
            <mxPoint x="350.3000000000002" y="652.8199999999999" as="targetPoint" />
            <Array as="points">
              <mxPoint x="410" y="652.5699999999999" />
            </Array>
          </mxGeometry>
        </mxCell>
        <mxCell id="Pfp1v4sWHXsM7J0-VuYN-24" value="4" style="edgeLabel;html=1;align=center;verticalAlign=middle;resizable=0;points=[];" parent="Pfp1v4sWHXsM7J0-VuYN-23" connectable="0" vertex="1">
          <mxGeometry x="0.1166" relative="1" as="geometry">
            <mxPoint as="offset" />
          </mxGeometry>
        </mxCell>
        <mxCell id="Pfp1v4sWHXsM7J0-VuYN-25" value="" style="endArrow=openThin;startArrow=none;html=1;rounded=0;startFill=0;endFill=0;entryX=0.932;entryY=0.953;entryDx=0;entryDy=0;entryPerimeter=0;" parent="1" edge="1">
          <mxGeometry width="50" height="50" relative="1" as="geometry">
            <mxPoint x="458.4" y="667.74" as="sourcePoint" />
            <mxPoint x="339.9999999999999" y="667.1999999999999" as="targetPoint" />
          </mxGeometry>
        </mxCell>
        <mxCell id="Pfp1v4sWHXsM7J0-VuYN-26" value="2" style="edgeLabel;html=1;align=center;verticalAlign=middle;resizable=0;points=[];" parent="Pfp1v4sWHXsM7J0-VuYN-25" connectable="0" vertex="1">
          <mxGeometry x="0.1166" y="-1" relative="1" as="geometry">
            <mxPoint as="offset" />
          </mxGeometry>
        </mxCell>
        <mxCell id="Pfp1v4sWHXsM7J0-VuYN-27" value="" style="endArrow=none;startArrow=openThin;html=1;rounded=0;startFill=0;endFill=0;exitX=0.016;exitY=0.998;exitDx=0;exitDy=0;exitPerimeter=0;entryX=1.063;entryY=0.1;entryDx=0;entryDy=0;entryPerimeter=0;" parent="1" source="aYmNwZs_Y1c9iqJjh8kd-16" target="Pfp1v4sWHXsM7J0-VuYN-19" edge="1">
          <mxGeometry width="50" height="50" relative="1" as="geometry">
            <mxPoint x="610" y="610" as="sourcePoint" />
            <mxPoint x="520" y="650" as="targetPoint" />
            <Array as="points" />
          </mxGeometry>
        </mxCell>
        <mxCell id="Pfp1v4sWHXsM7J0-VuYN-28" value="7" style="edgeLabel;html=1;align=center;verticalAlign=middle;resizable=0;points=[];" parent="Pfp1v4sWHXsM7J0-VuYN-27" connectable="0" vertex="1">
          <mxGeometry x="0.1166" relative="1" as="geometry">
            <mxPoint y="-2" as="offset" />
          </mxGeometry>
        </mxCell>
        <mxCell id="Pfp1v4sWHXsM7J0-VuYN-29" value="" style="endArrow=openThin;startArrow=none;html=1;rounded=0;startFill=0;endFill=0;exitX=-0.072;exitY=0.552;exitDx=0;exitDy=0;exitPerimeter=0;entryX=0.799;entryY=1.033;entryDx=0;entryDy=0;entryPerimeter=0;" parent="1" target="aYmNwZs_Y1c9iqJjh8kd-13" edge="1">
          <mxGeometry width="50" height="50" relative="1" as="geometry">
            <mxPoint x="286.4000000000001" y="644.56" as="sourcePoint" />
            <mxPoint x="180" y="600" as="targetPoint" />
            <Array as="points">
              <mxPoint x="229.7" y="619.9999999999999" />
            </Array>
          </mxGeometry>
        </mxCell>
        <mxCell id="Pfp1v4sWHXsM7J0-VuYN-30" value="5" style="edgeLabel;html=1;align=center;verticalAlign=middle;resizable=0;points=[];" parent="Pfp1v4sWHXsM7J0-VuYN-29" connectable="0" vertex="1">
          <mxGeometry x="0.1166" relative="1" as="geometry">
            <mxPoint as="offset" />
          </mxGeometry>
        </mxCell>
        <mxCell id="Pfp1v4sWHXsM7J0-VuYN-31" value="" style="endArrow=none;startArrow=openThin;html=1;rounded=0;startFill=0;endFill=0;exitX=-0.06;exitY=0.722;exitDx=0;exitDy=0;exitPerimeter=0;" parent="1" source="Pfp1v4sWHXsM7J0-VuYN-18" edge="1">
          <mxGeometry width="50" height="50" relative="1" as="geometry">
            <mxPoint x="270" y="650" as="sourcePoint" />
            <mxPoint x="160" y="600" as="targetPoint" />
            <Array as="points">
              <mxPoint x="199.7" y="619.9999999999999" />
            </Array>
          </mxGeometry>
        </mxCell>
        <mxCell id="Pfp1v4sWHXsM7J0-VuYN-32" value="6" style="edgeLabel;html=1;align=center;verticalAlign=middle;resizable=0;points=[];" parent="Pfp1v4sWHXsM7J0-VuYN-31" connectable="0" vertex="1">
          <mxGeometry x="0.1166" relative="1" as="geometry">
            <mxPoint as="offset" />
          </mxGeometry>
        </mxCell>
        <mxCell id="Pfp1v4sWHXsM7J0-VuYN-33" value="" style="endArrow=openThin;startArrow=none;html=1;rounded=0;startFill=0;endFill=0;exitX=0.325;exitY=1.087;exitDx=0;exitDy=0;exitPerimeter=0;entryX=1.031;entryY=0.669;entryDx=0;entryDy=0;entryPerimeter=0;" parent="1" source="aYmNwZs_Y1c9iqJjh8kd-16" target="Pfp1v4sWHXsM7J0-VuYN-19" edge="1">
          <mxGeometry width="50" height="50" relative="1" as="geometry">
            <mxPoint x="604" y="620" as="sourcePoint" />
            <mxPoint x="520" y="650" as="targetPoint" />
            <Array as="points" />
          </mxGeometry>
        </mxCell>
        <mxCell id="Pfp1v4sWHXsM7J0-VuYN-34" value="8" style="edgeLabel;html=1;align=center;verticalAlign=middle;resizable=0;points=[];" parent="Pfp1v4sWHXsM7J0-VuYN-33" connectable="0" vertex="1">
          <mxGeometry x="0.1166" relative="1" as="geometry">
            <mxPoint y="-2" as="offset" />
          </mxGeometry>
        </mxCell>
        <mxCell id="2L5tRokcRGzF5KFAs5Hx-1" value="" style="endArrow=openThin;html=1;rounded=0;exitX=1.073;exitY=0.511;exitDx=0;exitDy=0;exitPerimeter=0;endFill=0;" parent="1" source="aYmNwZs_Y1c9iqJjh8kd-9" edge="1">
          <mxGeometry width="50" height="50" relative="1" as="geometry">
            <mxPoint x="190" y="280" as="sourcePoint" />
            <mxPoint x="370" y="360" as="targetPoint" />
          </mxGeometry>
        </mxCell>
        <mxCell id="2L5tRokcRGzF5KFAs5Hx-5" value="1" style="edgeLabel;html=1;align=center;verticalAlign=middle;resizable=0;points=[];" parent="2L5tRokcRGzF5KFAs5Hx-1" connectable="0" vertex="1">
          <mxGeometry x="0.0735" y="4" relative="1" as="geometry">
            <mxPoint x="-80" y="-45" as="offset" />
          </mxGeometry>
        </mxCell>
        <mxCell id="2L5tRokcRGzF5KFAs5Hx-3" value="" style="endArrow=openThin;html=1;rounded=0;exitX=1.076;exitY=0.34;exitDx=0;exitDy=0;exitPerimeter=0;endFill=0;" parent="1" source="aYmNwZs_Y1c9iqJjh8kd-9" edge="1">
          <mxGeometry width="50" height="50" relative="1" as="geometry">
            <mxPoint x="214" y="275" as="sourcePoint" />
            <mxPoint x="500" y="190" as="targetPoint" />
          </mxGeometry>
        </mxCell>
        <mxCell id="2L5tRokcRGzF5KFAs5Hx-4" value="3" style="edgeLabel;html=1;align=center;verticalAlign=middle;resizable=0;points=[];" parent="2L5tRokcRGzF5KFAs5Hx-3" connectable="0" vertex="1">
          <mxGeometry x="0.3026" y="2" relative="1" as="geometry">
            <mxPoint x="-170" y="44" as="offset" />
          </mxGeometry>
        </mxCell>
        <mxCell id="2L5tRokcRGzF5KFAs5Hx-6" value="" style="endArrow=openThin;html=1;rounded=0;exitX=1;exitY=0.067;exitDx=0;exitDy=0;exitPerimeter=0;endFill=0;" parent="1" source="aYmNwZs_Y1c9iqJjh8kd-11" edge="1">
          <mxGeometry width="50" height="50" relative="1" as="geometry">
            <mxPoint x="200" y="374" as="sourcePoint" />
            <mxPoint x="260" y="200" as="targetPoint" />
          </mxGeometry>
        </mxCell>
        <mxCell id="2L5tRokcRGzF5KFAs5Hx-12" value="1" style="edgeLabel;html=1;align=center;verticalAlign=middle;resizable=0;points=[];" parent="2L5tRokcRGzF5KFAs5Hx-6" connectable="0" vertex="1">
          <mxGeometry x="-0.3158" y="1" relative="1" as="geometry">
            <mxPoint x="-10" y="35" as="offset" />
          </mxGeometry>
        </mxCell>
        <mxCell id="2L5tRokcRGzF5KFAs5Hx-10" value="" style="endArrow=openThin;html=1;rounded=0;entryX=0.25;entryY=1;entryDx=0;entryDy=0;endFill=0;" parent="1" target="aYmNwZs_Y1c9iqJjh8kd-1" edge="1">
          <mxGeometry width="50" height="50" relative="1" as="geometry">
            <mxPoint x="200" y="370" as="sourcePoint" />
            <mxPoint x="280" y="210" as="targetPoint" />
          </mxGeometry>
        </mxCell>
        <mxCell id="2L5tRokcRGzF5KFAs5Hx-14" value="3" style="edgeLabel;html=1;align=center;verticalAlign=middle;resizable=0;points=[];" parent="2L5tRokcRGzF5KFAs5Hx-10" connectable="0" vertex="1">
          <mxGeometry x="-0.5214" y="-1" relative="1" as="geometry">
            <mxPoint x="-25" y="34" as="offset" />
          </mxGeometry>
        </mxCell>
        <mxCell id="2L5tRokcRGzF5KFAs5Hx-19" value="" style="endArrow=openThin;html=1;rounded=0;exitX=0.905;exitY=0.029;exitDx=0;exitDy=0;exitPerimeter=0;endFill=0;entryX=0.409;entryY=1.08;entryDx=0;entryDy=0;entryPerimeter=0;" parent="1" source="aYmNwZs_Y1c9iqJjh8kd-12" target="aYmNwZs_Y1c9iqJjh8kd-1" edge="1">
          <mxGeometry width="50" height="50" relative="1" as="geometry">
            <mxPoint x="190" y="484" as="sourcePoint" />
            <mxPoint x="400" y="130" as="targetPoint" />
          </mxGeometry>
        </mxCell>
        <mxCell id="2L5tRokcRGzF5KFAs5Hx-21" value="4" style="edgeLabel;html=1;align=center;verticalAlign=middle;resizable=0;points=[];" parent="2L5tRokcRGzF5KFAs5Hx-19" connectable="0" vertex="1">
          <mxGeometry x="-0.5741" relative="1" as="geometry">
            <mxPoint x="-29" y="42" as="offset" />
          </mxGeometry>
        </mxCell>
        <mxCell id="2L5tRokcRGzF5KFAs5Hx-22" value="" style="endArrow=openThin;html=1;rounded=0;exitX=0.948;exitY=0.598;exitDx=0;exitDy=0;exitPerimeter=0;endFill=0;" parent="1" edge="1">
          <mxGeometry width="50" height="50" relative="1" as="geometry">
            <mxPoint x="200" y="484" as="sourcePoint" />
            <mxPoint x="500" y="200" as="targetPoint" />
          </mxGeometry>
        </mxCell>
        <mxCell id="2L5tRokcRGzF5KFAs5Hx-24" value="2" style="edgeLabel;html=1;align=center;verticalAlign=middle;resizable=0;points=[];" parent="2L5tRokcRGzF5KFAs5Hx-22" connectable="0" vertex="1">
          <mxGeometry x="-0.5681" y="2" relative="1" as="geometry">
            <mxPoint x="-34" y="29" as="offset" />
          </mxGeometry>
        </mxCell>
        <mxCell id="2L5tRokcRGzF5KFAs5Hx-25" value="" style="endArrow=openThin;html=1;rounded=0;entryX=-0.024;entryY=0.638;entryDx=0;entryDy=0;entryPerimeter=0;endFill=0;exitX=0.041;exitY=-0.033;exitDx=0;exitDy=0;exitPerimeter=0;" parent="1" source="aYmNwZs_Y1c9iqJjh8kd-13" target="aYmNwZs_Y1c9iqJjh8kd-2" edge="1">
          <mxGeometry width="50" height="50" relative="1" as="geometry">
            <mxPoint x="160" y="581" as="sourcePoint" />
            <mxPoint x="130" y="160" as="targetPoint" />
            <Array as="points">
              <mxPoint x="120" y="220" />
            </Array>
          </mxGeometry>
        </mxCell>
        <mxCell id="2L5tRokcRGzF5KFAs5Hx-28" value="4" style="edgeLabel;html=1;align=center;verticalAlign=middle;resizable=0;points=[];" parent="2L5tRokcRGzF5KFAs5Hx-25" connectable="0" vertex="1">
          <mxGeometry x="0.002" y="1" relative="1" as="geometry">
            <mxPoint x="21" y="220" as="offset" />
          </mxGeometry>
        </mxCell>
        <mxCell id="2L5tRokcRGzF5KFAs5Hx-29" value="" style="endArrow=openThin;html=1;rounded=0;endFill=0;exitX=1.033;exitY=0.056;exitDx=0;exitDy=0;exitPerimeter=0;entryX=0;entryY=1;entryDx=0;entryDy=0;" parent="1" source="aYmNwZs_Y1c9iqJjh8kd-13" target="aYmNwZs_Y1c9iqJjh8kd-8" edge="1">
          <mxGeometry width="50" height="50" relative="1" as="geometry">
            <mxPoint x="190" y="580" as="sourcePoint" />
            <mxPoint x="380" y="370" as="targetPoint" />
          </mxGeometry>
        </mxCell>
        <mxCell id="2L5tRokcRGzF5KFAs5Hx-31" value="2&lt;div&gt;&lt;br&gt;&lt;/div&gt;" style="edgeLabel;html=1;align=center;verticalAlign=middle;resizable=0;points=[];" parent="2L5tRokcRGzF5KFAs5Hx-29" connectable="0" vertex="1">
          <mxGeometry x="-0.7869" y="-1" relative="1" as="geometry">
            <mxPoint as="offset" />
          </mxGeometry>
        </mxCell>
        <mxCell id="2L5tRokcRGzF5KFAs5Hx-35" value="" style="endArrow=none;startArrow=openThin;html=1;rounded=0;startFill=0;endFill=0;entryX=0.665;entryY=0.011;entryDx=0;entryDy=0;entryPerimeter=0;" parent="1" target="Pfp1v4sWHXsM7J0-VuYN-18" edge="1">
          <mxGeometry width="50" height="50" relative="1" as="geometry">
            <mxPoint x="520" y="200" as="sourcePoint" />
            <mxPoint x="330" y="630" as="targetPoint" />
          </mxGeometry>
        </mxCell>
        <mxCell id="2L5tRokcRGzF5KFAs5Hx-37" value="3" style="edgeLabel;html=1;align=center;verticalAlign=middle;resizable=0;points=[];" parent="2L5tRokcRGzF5KFAs5Hx-35" connectable="0" vertex="1">
          <mxGeometry x="0.7128" y="1" relative="1" as="geometry">
            <mxPoint x="-10" y="23" as="offset" />
          </mxGeometry>
        </mxCell>
        <mxCell id="2L5tRokcRGzF5KFAs5Hx-38" value="" style="endArrow=none;startArrow=openThin;html=1;rounded=0;startFill=0;endFill=0;entryX=0.273;entryY=-0.113;entryDx=0;entryDy=0;entryPerimeter=0;" parent="1" target="Pfp1v4sWHXsM7J0-VuYN-19" edge="1">
          <mxGeometry width="50" height="50" relative="1" as="geometry">
            <mxPoint x="270" y="200" as="sourcePoint" />
            <mxPoint x="470" y="630" as="targetPoint" />
          </mxGeometry>
        </mxCell>
        <mxCell id="2L5tRokcRGzF5KFAs5Hx-40" value="1" style="edgeLabel;html=1;align=center;verticalAlign=middle;resizable=0;points=[];" parent="2L5tRokcRGzF5KFAs5Hx-38" connectable="0" vertex="1">
          <mxGeometry x="0.8751" relative="1" as="geometry">
            <mxPoint as="offset" />
          </mxGeometry>
        </mxCell>
        <mxCell id="2L5tRokcRGzF5KFAs5Hx-41" value="" style="endArrow=none;startArrow=openThin;html=1;rounded=0;startFill=0;endFill=0;exitX=0.608;exitY=1.068;exitDx=0;exitDy=0;exitPerimeter=0;" parent="1" source="aYmNwZs_Y1c9iqJjh8kd-1" edge="1">
          <mxGeometry width="50" height="50" relative="1" as="geometry">
            <mxPoint x="410" y="130" as="sourcePoint" />
            <mxPoint x="491" y="639" as="targetPoint" />
          </mxGeometry>
        </mxCell>
        <mxCell id="2L5tRokcRGzF5KFAs5Hx-43" value="3" style="edgeLabel;html=1;align=center;verticalAlign=middle;resizable=0;points=[];" parent="2L5tRokcRGzF5KFAs5Hx-41" connectable="0" vertex="1">
          <mxGeometry x="0.8547" y="2" relative="1" as="geometry">
            <mxPoint as="offset" />
          </mxGeometry>
        </mxCell>
        <mxCell id="2L5tRokcRGzF5KFAs5Hx-44" value="" style="endArrow=none;startArrow=openThin;html=1;rounded=0;startFill=0;endFill=0;entryX=0.037;entryY=0;entryDx=0;entryDy=0;entryPerimeter=0;exitX=0.75;exitY=1;exitDx=0;exitDy=0;" parent="1" source="aYmNwZs_Y1c9iqJjh8kd-1" target="aYmNwZs_Y1c9iqJjh8kd-16" edge="1">
          <mxGeometry width="50" height="50" relative="1" as="geometry">
            <mxPoint x="420" y="130" as="sourcePoint" />
            <mxPoint x="511" y="629" as="targetPoint" />
          </mxGeometry>
        </mxCell>
        <mxCell id="2L5tRokcRGzF5KFAs5Hx-46" value="4" style="edgeLabel;html=1;align=center;verticalAlign=middle;resizable=0;points=[];" parent="2L5tRokcRGzF5KFAs5Hx-44" connectable="0" vertex="1">
          <mxGeometry x="0.8613" relative="1" as="geometry">
            <mxPoint as="offset" />
          </mxGeometry>
        </mxCell>
        <mxCell id="2L5tRokcRGzF5KFAs5Hx-47" value="" style="endArrow=none;startArrow=openThin;html=1;rounded=0;startFill=0;endFill=0;entryX=0.997;entryY=-0.051;entryDx=0;entryDy=0;entryPerimeter=0;exitX=1.073;exitY=0.46;exitDx=0;exitDy=0;exitPerimeter=0;" parent="1" source="aYmNwZs_Y1c9iqJjh8kd-3" target="aYmNwZs_Y1c9iqJjh8kd-16" edge="1">
          <mxGeometry width="50" height="50" relative="1" as="geometry">
            <mxPoint x="560" y="190" as="sourcePoint" />
            <mxPoint x="642.2" y="584.3200000000002" as="targetPoint" />
            <Array as="points">
              <mxPoint x="660" y="210" />
            </Array>
          </mxGeometry>
        </mxCell>
        <mxCell id="2L5tRokcRGzF5KFAs5Hx-56" value="2" style="edgeLabel;html=1;align=center;verticalAlign=middle;resizable=0;points=[];" parent="2L5tRokcRGzF5KFAs5Hx-47" connectable="0" vertex="1">
          <mxGeometry x="0.0615" relative="1" as="geometry">
            <mxPoint x="-9" y="191" as="offset" />
          </mxGeometry>
        </mxCell>
        <mxCell id="2L5tRokcRGzF5KFAs5Hx-52" value="" style="endArrow=none;startArrow=openThin;html=1;rounded=0;endFill=0;entryX=0.3;entryY=0;entryDx=0;entryDy=0;entryPerimeter=0;startFill=0;" parent="1" target="aYmNwZs_Y1c9iqJjh8kd-15" edge="1">
          <mxGeometry width="50" height="50" relative="1" as="geometry">
            <mxPoint x="297" y="190" as="sourcePoint" />
            <mxPoint x="610" y="460" as="targetPoint" />
          </mxGeometry>
        </mxCell>
        <mxCell id="2L5tRokcRGzF5KFAs5Hx-54" value="4" style="edgeLabel;html=1;align=center;verticalAlign=middle;resizable=0;points=[];" parent="2L5tRokcRGzF5KFAs5Hx-52" connectable="0" vertex="1">
          <mxGeometry x="0.9261" y="-1" relative="1" as="geometry">
            <mxPoint as="offset" />
          </mxGeometry>
        </mxCell>
        <mxCell id="2L5tRokcRGzF5KFAs5Hx-60" value="" style="endArrow=none;startArrow=openThin;html=1;rounded=0;endFill=0;entryX=0.005;entryY=0.5;entryDx=0;entryDy=0;entryPerimeter=0;startFill=0;exitX=1.032;exitY=0.478;exitDx=0;exitDy=0;exitPerimeter=0;" parent="1" source="aYmNwZs_Y1c9iqJjh8kd-2" target="aYmNwZs_Y1c9iqJjh8kd-10" edge="1">
          <mxGeometry width="50" height="50" relative="1" as="geometry">
            <mxPoint x="310" y="180" as="sourcePoint" />
            <mxPoint x="590" y="267" as="targetPoint" />
          </mxGeometry>
        </mxCell>
        <mxCell id="2L5tRokcRGzF5KFAs5Hx-62" value="1" style="edgeLabel;html=1;align=center;verticalAlign=middle;resizable=0;points=[];" parent="2L5tRokcRGzF5KFAs5Hx-60" connectable="0" vertex="1">
          <mxGeometry x="0.8775" y="-3" relative="1" as="geometry">
            <mxPoint as="offset" />
          </mxGeometry>
        </mxCell>
      </root>
    </mxGraphModel>
  </diagram>
</mxfile>
